<svg xmlns="http://www.w3.org/2000/svg" viewBox="0 0 24 24">
  <path d="M18.71 7.343c-1.12.952-2.655 1.567-4.085 1.567-1.43 0-2.965-.615-4.085-1.567C9.42 6.39 8.315 5.437 6.885 5.437c-1.43 0-2.535.953-3.655 1.906C2.11 8.296 1.005 9.25 1.005 10.203v7.812c0 .953 1.105 1.907 2.225 2.86 1.12.952 2.225 1.906 3.655 1.906 1.43 0 2.535-.954 3.655-1.906 1.12-.953 2.225-1.907 3.655-1.907 1.43 0 2.535.954 3.655 1.907 1.12.952 2.225 1.906 3.655 1.906 1.43 0 2.535-.954 3.655-1.906 1.12-.953 2.225-1.907 2.225-2.86v-7.812c0-.953-1.105-1.907-2.225-2.86-1.12-.953-2.225-1.906-3.655-1.906-1.43 0-2.535.953-3.655 1.906z" fill="#000000"/>
</svg> 