<?xml version="1.0" encoding="UTF-8"?>
<svg id="katman_1" data-name="katman 1" xmlns="http://www.w3.org/2000/svg" version="1.1" viewBox="0 0 841.89 595.28">
  <defs>
    <style>
      .cls-1 {
        fill-rule: evenodd;
      }

      .cls-1, .cls-2 {
        fill: #19191c;
      }

      .cls-1, .cls-2, .cls-3 {
        stroke-width: 0px;
      }

      .cls-3 {
        fill: #fd366e;
      }
    </style>
  </defs>
  <path class="cls-2" d="M270.33,338.56c11.85,0,17.84-6.11,20.45-10.27h1.17c.52,4.42,3.65,8.58,9.77,8.58h11.59v-13h-3c-2.08,0-3.13-1.17-3.13-2.99v-52.14h-15.37v8.32h-1.17c-3-4.16-9.25-10.01-20.71-10.01-18.23,0-31.78,15.08-31.78,35.76s13.81,35.76,32.17,35.76ZM273.06,323.74c-10.81,0-19.28-7.93-19.28-20.81s8.21-21.19,19.15-21.19,19.15,7.67,19.15,21.19c0,11.57-7.42,20.81-19.02,20.81Z"/>
  <path class="cls-2" d="M322.38,363.29h15.37v-35h1.17c2.87,4.16,8.99,10.27,21.1,10.27,18.23,0,31.52-15.34,31.52-35.76s-14.2-35.76-32.56-35.76c-11.72,0-17.45,6.37-20.19,9.88h-1.17v-8.19h-15.24v94.56ZM356.77,324.13c-10.55,0-19.28-7.8-19.28-21.33,0-11.57,7.42-21.32,19.02-21.32,10.81,0,19.28,8.45,19.28,21.32s-8.21,21.33-19.02,21.33Z"/>
  <path class="cls-2" d="M399.47,363.29h15.37v-35h1.17c2.87,4.16,8.99,10.27,21.1,10.27,18.23,0,30.25-15.34,30.25-35.76s-12.93-35.76-31.29-35.76c-11.72,0-17.45,6.37-20.19,9.88h-1.17v-8.19h-15.24v94.56ZM433.86,324.13c-10.55,0-19.28-7.8-19.28-21.33,0-11.57,7.42-21.32,19.02-21.32,10.81,0,19.28,8.45,19.28,21.32s-8.21,21.33-19.02,21.33Z"/>
  <path class="cls-2" d="M487.68,338.45h21.75l12.37-53.44h.78l12.37,53.44h21.62l17.31-68.14h-15.49l-12.37,53.57h-1.17l-12.37-53.57h-20.45l-12.5,53.57h-1.17l-12.24-53.57h-16.41l17.97,68.14Z"/>
  <path class="cls-2" d="M581.68,338.45h15.37v-33.68c0-12.87,5.99-20.8,17.19-20.8h6.77v-15.34h-5.08c-8.73,0-15.37,5.98-17.97,11.7h-1.04v-10.01h-15.24v68.14Z"/>
  <path class="cls-2" d="M697.28,338.45h11.98v-13.65h-11.85c-4.69,0-6.64-2.08-6.64-6.89v-34.07h19.27v-13.52h-19.27v-19.11h-14.59v19.11h-12.76v13.52h11.85v34.2c0,14.43,8.72,20.41,22.01,20.41Z"/>
  <path class="cls-2" d="M750.49,338.56c14.2,0,26.7-7.02,31.13-21.19l-14.06-3.38c-2.48,7.54-9.63,11.44-17.19,11.44-11.2,0-18.63-7.28-18.76-18.72h51.71v-4.29c0-20.28-12.63-35.37-33.47-35.37-18.37,0-34.12,14.43-34.12,35.89s13.93,35.63,34.77,35.63ZM731.74,295.52c.91-8.19,8.33-15.08,18.11-15.08s17.06,5.85,17.84,15.08h-35.95Z"/>
  <path class="cls-1" d="M656.58,338.45h-15.37v-54.61h-11.98v-13.52h27.35v68.14Z"/>
  <path class="cls-2" d="M647.76,260.86c5.6,0,9.77-4.16,9.77-9.62s-4.17-9.49-9.77-9.49-9.77,4.16-9.77,9.49,4.17,9.62,9.77,9.62Z"/>
  <path class="cls-3" d="M192.84,321.74v30.07h-75.16c-21.9,0-41.02-12.09-51.25-30.07-1.49-2.61-2.79-5.36-3.88-8.2-2.14-5.58-3.49-11.56-3.9-17.8v-8.13c.09-1.39.23-2.77.41-4.14.37-2.8.94-5.54,1.68-8.2,7.02-25.24,29.85-43.74,56.93-43.74s49.91,18.5,56.93,43.74h-32.14c-5.28-8.23-14.41-13.67-24.79-13.67s-19.52,5.44-24.79,13.67c-1.61,2.5-2.86,5.26-3.67,8.2-.73,2.61-1.11,5.36-1.11,8.2,0,8.62,3.57,16.39,9.28,21.87,5.3,5.09,12.44,8.2,20.3,8.2h75.16Z"/>
  <path class="cls-3" d="M192.84,283.47v30.07h-54.86c5.72-5.48,9.28-13.25,9.28-21.87,0-2.84-.39-5.59-1.11-8.2h46.69Z"/>
</svg>