<svg id="Layer_1" data-name="Layer 1" xmlns="http://www.w3.org/2000/svg" width="246.49" height="92.87" viewBox="0 0 246.49 92.87"><title>Plaid logo - Brandlogos.net</title><path d="M436.07,389.47l3.62-11.89,3.56,11.89Zm.1-22.69-13.79,34.8h9.45l1.81-5.06h12l1.65,5.06h9.56l-13.69-34.8Zm-27.38,0H400v34.8h19V393.7H408.79Zm-28.3,16h-3.56v-8.14h3.2q5.84,0,5.84,4.1t-5.48,4m9.87-13.41q-3.1-2.61-10.59-2.61H368.51v34.8h8.42V390.67h3.77q6.87,0,10.07-3a11.8,11.8,0,0,0,3.62-9,11.44,11.44,0,0,0-4-9.24" transform="translate(-260.76 -337.57)" style="fill:#111;fill-rule:evenodd"/><path d="M312.17,414.68l9.56-9.5,12,12.3-15,3.93ZM279.22,417l12.18-12.11,9.41,9.66-6.66,6.62Zm48.23-17.55L337,390l6.56,6.73-4.13,15.07Zm-30.33-.25,9.56-9.5,9.41,9.66-9.56,9.5Zm-27.43-3.13,6.66-6.62,9.4,9.66-12.18,12.1ZM312.41,384l9.56-9.5,9.41,9.66-9.56,9.5Zm-30.33-.25,9.56-9.5,9.41,9.66-9.56,9.5Zm15.29-15.19,9.56-9.5,9.4,9.66-9.56,9.5Zm30.33.25,12.18-12.11,3.89,15.14-6.66,6.62Zm-57.8,2.43L274,356.21l12,12.3-9.56,9.5Zm42.76-17.87,6.66-6.62L334.25,351l-12.18,12.1Zm-32.91-2.89,15-3.93,6.56,6.73-9.56,9.5Zm17.46-13L268.76,345l-7.84,28.62,9.81,10.07-10,9.9,7.38,28.74,28.33,7.92,10-9.91,9.81,10.07L344.71,423l7.84-28.62-9.81-10.07,10-9.9-7.38-28.75L317,337.73l-10,9.9ZM490,393.7h-3.77v-19h3.82a7.74,7.74,0,0,1,6.2,2.52q2.17,2.52,2.17,7.13,0,9.39-8.42,9.39m14.05-20.4a14.28,14.28,0,0,0-4.19-4q-4-2.51-10.85-2.5H477.49v34.8H491a15.28,15.28,0,0,0,11.78-4.8q4.44-4.8,4.44-12.73a18.09,18.09,0,0,0-3.15-10.75m-42.87,28.28H470v-34.8h-8.78Z" transform="translate(-260.76 -337.57)" style="fill:#111;fill-rule:evenodd"/></svg>