<svg xmlns="http://www.w3.org/2000/svg" xmlns:xlink="http://www.w3.org/1999/xlink" width="500" zoomAndPan="magnify" viewBox="0 0 375 374.999991" height="500" preserveAspectRatio="xMidYMid meet" version="1.0"><defs><clipPath id="a9f1667f8f"><path d="M 23.367188 23.367188 L 351.867188 23.367188 L 351.867188 351.867188 L 23.367188 351.867188 Z M 23.367188 23.367188 " clip-rule="nonzero"/></clipPath><clipPath id="6e967a93ad"><path d="M 79 87 L 295.066406 87 L 295.066406 312.339844 L 79 312.339844 Z M 79 87 " clip-rule="nonzero"/></clipPath><clipPath id="1f8e86bfd6"><path d="M 84.5625 78 L 300.871094 78 L 300.871094 302.90625 L 84.5625 302.90625 Z M 84.5625 78 " clip-rule="nonzero"/></clipPath><clipPath id="6560af0aed"><path d="M 91.355469 67 L 307.664062 67 L 307.664062 292.683594 L 91.355469 292.683594 Z M 91.355469 67 " clip-rule="nonzero"/></clipPath></defs><g clip-path="url(#a9f1667f8f)"><path fill="#e1d2ff" d="M 105.472656 23.324219 C 60.152344 23.324219 23.40625 60.070312 23.40625 105.390625 L 23.40625 269.523438 C 23.40625 314.847656 60.152344 351.589844 105.472656 351.589844 L 269.605469 351.589844 C 314.925781 351.589844 351.671875 314.847656 351.671875 269.523438 L 351.671875 105.390625 C 351.671875 60.070312 314.925781 23.324219 269.605469 23.324219 Z M 105.472656 23.324219 " fill-opacity="1" fill-rule="nonzero"/></g><g clip-path="url(#6e967a93ad)"><path fill="#cbb2fd" d="M 138.304688 90.636719 C 102.285156 99.921875 79.089844 130.738281 79.070312 167.933594 C 79.039062 210.992188 79.058594 254.058594 79.058594 297.113281 L 108.785156 280.242188 C 108.710938 242.785156 108.730469 205.347656 108.761719 167.890625 C 108.761719 155.535156 112.390625 144.402344 120.621094 135.019531 C 133.421875 120.40625 150.027344 115.96875 168.671875 117.910156 C 190.261719 120.128906 208.390625 134.296875 213.027344 153.628906 C 215.003906 161.824219 214.226562 170.644531 215.078125 179.132812 C 215.578125 183.945312 213.578125 186.386719 209.566406 188.660156 C 182.023438 204.308594 154.609375 220.199219 127.175781 236.015625 C 122.160156 238.898438 122.109375 242.046875 127.03125 244.898438 C 134.296875 249.09375 141.570312 253.292969 148.839844 257.492188 C 179.582031 275.226562 210.300781 292.96875 241.0625 310.683594 C 242.007812 311.222656 243.042969 311.589844 244.710938 312.332031 L 244.710938 307.523438 C 244.710938 274.230469 244.785156 240.929688 244.597656 207.636719 C 244.578125 205.214844 245.097656 203.53125 246.277344 202.164062 C 247.003906 201.292969 247.980469 200.578125 249.253906 199.851562 C 264.625 191.15625 279.882812 182.261719 295.234375 173.515625 L 295.234375 139.074219 C 288.09375 143.179688 281.304688 147.117188 274.515625 151.023438 C 264.878906 156.589844 255.226562 162.121094 245.640625 167.617188 C 245.125 166.953125 244.824219 166.746094 244.8125 166.507812 C 244.71875 165.511719 244.683594 164.488281 244.644531 163.472656 C 244.015625 148.246094 239.246094 134.449219 230.621094 121.929688 C 209.40625 91.007812 170.632812 82.3125 138.304688 90.636719 Z M 214.660156 261.085938 C 202.710938 254.203125 191.183594 247.558594 178.984375 240.53125 C 185.863281 236.574219 192.519531 232.746094 199.214844 228.894531 C 204.304688 225.953125 209.425781 223.015625 214.660156 220 Z M 214.660156 261.085938 " fill-opacity="1" fill-rule="nonzero"/></g><g clip-path="url(#1f8e86bfd6)"><path fill="#8c52ff" d="M 144.105469 81.203125 C 108.089844 90.488281 84.894531 121.304688 84.875 158.503906 C 84.839844 201.5625 84.863281 244.625 84.863281 287.683594 L 114.585938 270.808594 C 114.515625 233.351562 114.535156 195.914062 114.566406 158.457031 C 114.566406 146.101562 118.195312 134.96875 126.425781 125.589844 C 139.226562 110.976562 155.832031 106.539062 174.476562 108.476562 C 196.066406 110.695312 214.195312 124.867188 218.828125 144.195312 C 220.808594 152.390625 220.03125 161.214844 220.882812 169.703125 C 221.378906 174.511719 219.382812 176.957031 215.371094 179.230469 C 187.828125 194.878906 160.414062 210.769531 132.980469 226.582031 C 127.964844 229.46875 127.914062 232.617188 132.835938 235.464844 C 140.101562 239.664062 147.375 243.863281 154.640625 248.058594 C 185.382812 265.796875 216.105469 283.539062 246.867188 301.253906 C 247.8125 301.792969 248.847656 302.15625 250.515625 302.902344 L 250.515625 298.089844 C 250.515625 264.800781 250.589844 231.5 250.402344 198.207031 C 250.382812 195.78125 250.902344 194.101562 252.082031 192.734375 C 252.808594 191.863281 253.785156 191.144531 255.058594 190.421875 C 270.429688 181.726562 285.6875 172.832031 301.039062 164.082031 L 301.039062 129.640625 C 293.898438 133.746094 287.109375 137.6875 280.320312 141.589844 C 270.683594 147.15625 261.03125 152.691406 251.445312 158.183594 C 250.925781 157.519531 250.628906 157.316406 250.613281 157.074219 C 250.523438 156.078125 250.488281 155.054688 250.449219 154.039062 C 249.816406 138.816406 245.046875 125.019531 236.425781 112.496094 C 215.210938 81.574219 176.4375 72.878906 144.105469 81.203125 Z M 220.464844 251.652344 C 208.515625 244.769531 196.988281 238.128906 184.785156 231.101562 C 191.667969 227.140625 198.324219 223.316406 205.019531 219.464844 C 210.109375 216.519531 215.230469 213.585938 220.464844 210.570312 Z M 220.464844 251.652344 " fill-opacity="1" fill-rule="nonzero"/></g><g clip-path="url(#6560af0aed)"><path fill="#682fd8" d="M 150.902344 70.976562 C 114.882812 80.265625 91.6875 111.078125 91.667969 148.277344 C 91.636719 191.335938 91.65625 234.398438 91.65625 277.457031 L 121.382812 260.585938 C 121.308594 223.128906 121.328125 185.691406 121.359375 148.230469 C 121.359375 135.875 124.988281 124.742188 133.21875 115.363281 C 146.019531 100.75 162.625 96.3125 181.269531 98.253906 C 202.859375 100.472656 220.988281 114.640625 225.625 133.96875 C 227.601562 142.167969 226.824219 150.988281 227.675781 159.476562 C 228.175781 164.289062 226.175781 166.730469 222.164062 169.003906 C 194.621094 184.652344 167.207031 200.542969 139.773438 216.359375 C 134.757812 219.242188 134.707031 222.390625 139.628906 225.238281 C 146.894531 229.4375 154.167969 233.636719 161.4375 237.835938 C 192.179688 255.570312 222.898438 273.3125 253.660156 291.027344 C 254.605469 291.566406 255.640625 291.933594 257.308594 292.675781 L 257.308594 287.867188 C 257.308594 254.574219 257.382812 221.273438 257.195312 187.980469 C 257.175781 185.558594 257.695312 183.875 258.875 182.507812 C 259.601562 181.636719 260.578125 180.921875 261.851562 180.195312 C 277.222656 171.5 292.480469 162.605469 307.832031 153.859375 L 307.832031 119.417969 C 300.691406 123.523438 293.902344 127.460938 287.113281 131.367188 C 277.476562 136.933594 267.824219 142.464844 258.238281 147.960938 C 257.71875 147.296875 257.421875 147.089844 257.410156 146.851562 C 257.316406 145.855469 257.28125 144.832031 257.242188 143.816406 C 256.609375 128.589844 251.84375 114.792969 243.21875 102.273438 C 222.003906 71.351562 183.230469 62.65625 150.902344 70.976562 Z M 227.257812 241.429688 C 215.308594 234.546875 203.78125 227.902344 191.582031 220.875 C 198.460938 216.917969 205.117188 213.089844 211.8125 209.238281 C 216.902344 206.296875 222.023438 203.359375 227.257812 200.34375 Z M 227.257812 241.429688 " fill-opacity="1" fill-rule="nonzero"/></g></svg>